<?xml version="1.0" encoding="utf-8"?>
<!-- Generator: Adobe Illustrator 15.1.0, SVG Export Plug-In . SVG Version: 6.00 Build 0)  -->
<!DOCTYPE svg PUBLIC "-//W3C//DTD SVG 1.1//EN" "http://www.w3.org/Graphics/SVG/1.1/DTD/svg11.dtd">
<svg version="1.1" id="Layer_1" xmlns="http://www.w3.org/2000/svg" xmlns:xlink="http://www.w3.org/1999/xlink" x="0px" y="0px"
	 width="204.998px" height="76.035px" viewBox="0 0 204.998 76.035" enable-background="new 0 0 204.998 76.035"
	 xml:space="preserve">
<path fill="#5E3E92" d="M7.089,59.885c-1.527-0.471-2.861-0.645-2.861-1.964c0-1.057,0.842-1.531,2.037-1.531
	c1.036,0,2.524,0.371,3.791,1.188v-2.229c-1.075-0.619-2.545-0.935-3.772-0.935C3.697,54.413,2,55.787,2,58.08
	c0,2.208,1.613,3.008,3.44,3.561c1.651,0.485,2.982,0.676,2.982,2.065c0,1.149-0.897,1.687-2.174,1.687
	c-1.054,0-2.615-0.386-3.879-1.249v2.31c1.122,0.604,2.613,0.922,3.86,0.922c2.648,0,4.423-1.423,4.423-3.785
	C10.65,61.277,8.964,60.458,7.089,59.885z"/>
<path fill="#5E3E92" d="M14.072,62.923c0-1.491,1.109-2.655,2.772-2.655c0.828,0,1.667,0.296,2.421,0.781v-2.051
	c-0.67-0.33-1.527-0.56-2.455-0.56c-2.705,0-4.885,1.827-4.885,4.503c0,2.549,2.003,4.428,4.776,4.428
	c0.916,0,1.913-0.212,2.701-0.643v-2.051c-0.683,0.534-1.613,0.848-2.524,0.848C15.229,65.528,14.072,64.454,14.072,62.923z"/>
<path fill="#5E3E92" d="M26.009,58.441c-1.143,0-2.125,0.487-2.827,1.127l-0.038-0.017v-5.643h-2.121v13.274h2.121v-5.805
	c0.563-0.586,1.422-1.075,2.283-1.075c0.46,0,0.842,0.137,1.124,0.466c0.243,0.28,0.353,0.663,0.353,1.465v4.949h2.125v-5.32
	c0-1.268-0.231-1.98-0.741-2.519C27.744,58.758,26.937,58.441,26.009,58.441z"/>
<path fill="#5E3E92" d="M35.237,58.441c-2.68,0-4.686,1.947-4.686,4.466c0,2.518,2.006,4.465,4.686,4.465
	c2.688,0,4.688-1.947,4.688-4.465C39.924,60.388,37.925,58.441,35.237,58.441z M35.237,65.528c-1.472,0-2.558-1.142-2.558-2.618
	c0-1.476,1.086-2.623,2.558-2.623c1.479,0,2.564,1.146,2.564,2.623C37.801,64.386,36.715,65.528,35.237,65.528z"/>
<path fill="#5E3E92" d="M45.981,58.441c-2.688,0-4.689,1.947-4.689,4.466c0,2.518,2.001,4.465,4.689,4.465
	c2.686,0,4.683-1.947,4.683-4.465C50.664,60.388,48.665,58.441,45.981,58.441z M45.981,65.528c-1.477,0-2.562-1.142-2.562-2.618
	c0-1.476,1.085-2.623,2.562-2.623c1.47,0,2.56,1.146,2.56,2.623C48.541,64.386,47.451,65.528,45.981,65.528z"/>
<rect x="52.145" y="53.908" fill="#5E3E92" width="2.124" height="13.271"/>
<path fill="#5E3E92" d="M65.701,59.885c-1.524-0.471-2.856-0.645-2.856-1.964c0-1.057,0.841-1.531,2.031-1.531
	c1.035,0,2.526,0.371,3.791,1.188v-2.229c-1.071-0.619-2.544-0.935-3.768-0.935c-2.579,0-4.284,1.374-4.284,3.667
	c0,2.208,1.612,3.008,3.441,3.561c1.648,0.485,2.982,0.676,2.982,2.065c0,1.149-0.895,1.687-2.176,1.687
	c-1.055,0-2.612-0.386-3.879-1.249v2.31c1.126,0.604,2.617,0.922,3.864,0.922c2.65,0,4.421-1.423,4.421-3.785
	C69.263,61.277,67.583,60.458,65.701,59.885z"/>
<path fill="#5E3E92" d="M75.034,58.441c-0.947,0-1.72,0.296-2.3,0.698l-0.035-0.021v-0.485h-2.104V71h2.125v-4.015l0.034-0.015
	c0.475,0.226,1.121,0.4,1.896,0.4c2.509,0,4.509-1.771,4.509-4.517C79.154,60.196,77.298,58.441,75.034,58.441z M74.509,65.616
	c-0.703,0-1.348-0.228-1.793-0.471v-4.273c0.508-0.397,1.176-0.623,1.844-0.623c1.508,0,2.457,1.214,2.457,2.73
	C77.017,64.488,76.055,65.616,74.509,65.616z"/>
<path fill="#5E3E92" d="M85.249,58.441c-2.688,0-4.688,1.947-4.688,4.466c0,2.518,2,4.465,4.688,4.465
	c2.685,0,4.684-1.947,4.684-4.465C89.933,60.388,87.934,58.441,85.249,58.441z M85.249,65.528c-1.477,0-2.56-1.142-2.56-2.618
	c0-1.476,1.086-2.623,2.56-2.623c1.475,0,2.561,1.146,2.561,2.623C87.81,64.386,86.724,65.528,85.249,65.528z"/>
<path fill="#5E3E92" d="M93.549,59.847l-0.033-0.012v-1.202h-2.106v8.55h2.125v-5.37c0.595-0.834,1.401-1.271,2.405-1.271
	c0.276,0,0.489,0.035,0.701,0.089v-2.016c-0.193-0.05-0.389-0.066-0.582-0.066C95.042,58.548,94.146,59.019,93.549,59.847z"/>
<path fill="#5E3E92" d="M101.479,55.994l-2.121,0.364v2.274h-1.513v1.788h1.513v3.669c0,1.268,0.26,1.978,0.705,2.446
	c0.54,0.606,1.349,0.837,2.103,0.837c0.666,0,1.367-0.174,1.754-0.4v-1.791c-0.354,0.19-0.841,0.366-1.298,0.366
	c-0.967,0-1.139-0.802-1.139-1.755v-3.372h2.437v-1.788h-2.437v-2.639H101.479z"/>
<path fill="#5E3E92" d="M117.592,55.265c-1.067-0.575-2.407-0.658-3.768-0.658h-3.55v12.576h2.227v-4.729h1.092
	c1.752,0,3.121-0.139,4.158-0.748c1.055-0.621,1.774-1.719,1.774-3.196C119.523,56.935,118.691,55.854,117.592,55.265z
	 M116.398,60.216c-0.597,0.346-1.334,0.396-2.634,0.396h-1.264v-4.046h1.23c1.088,0,1.89,0.023,2.528,0.336
	c0.649,0.311,1.029,0.866,1.029,1.682C117.289,59.346,116.961,59.885,116.398,60.216z"/>
<path fill="#5E3E92" d="M127.681,64.798v-3.283c0-1.057-0.336-1.788-0.912-2.272c-0.65-0.536-1.65-0.802-2.771-0.802
	c-1.233,0-2.227,0.315-2.915,0.698v1.908c0.67-0.419,1.566-0.763,2.596-0.763c0.655,0,1.143,0.135,1.462,0.412
	c0.276,0.263,0.42,0.648,0.42,1.164v0.504c-0.529-0.12-1.071-0.188-1.668-0.188c-0.895,0-1.771,0.157-2.419,0.59
	c-0.651,0.436-1.109,1.131-1.109,2.065c0,0.854,0.37,1.531,0.967,1.962c0.575,0.418,1.298,0.576,1.999,0.576
	c1.143,0,2.037-0.4,2.562-0.818h0.033c0.405,0.54,1.075,0.782,1.774,0.782c0.422,0,0.788-0.085,1.053-0.211v-1.648
	c-0.139,0.07-0.315,0.126-0.475,0.126C127.856,65.602,127.681,65.271,127.681,64.798z M125.555,65.182
	c-0.415,0.294-1.05,0.52-1.703,0.52c-0.754,0-1.367-0.327-1.367-1.02c0-0.837,0.861-1.112,1.735-1.112
	c0.424,0,0.949,0.07,1.335,0.174V65.182L125.555,65.182z"/>
<path fill="#5E3E92" d="M132.454,59.847l-0.038-0.012v-1.202h-2.106v8.55h2.126v-5.37c0.596-0.834,1.402-1.271,2.402-1.271
	c0.279,0,0.491,0.035,0.701,0.089v-2.016c-0.193-0.05-0.387-0.066-0.579-0.066C133.945,58.548,133.053,59.019,132.454,59.847z"/>
<path fill="#5E3E92" d="M140.269,55.994l-2.121,0.364v2.274h-1.508v1.788h1.508v3.669c0,1.268,0.265,1.978,0.701,2.446
	c0.546,0.606,1.349,0.837,2.104,0.837c0.668,0,1.369-0.174,1.752-0.4v-1.791c-0.345,0.19-0.84,0.366-1.298,0.366
	c-0.962,0-1.139-0.802-1.139-1.755v-3.372h2.437v-1.788h-2.437V55.994L140.269,55.994z"/>
<path fill="#5E3E92" d="M149.484,58.441c-1.139,0-2.126,0.487-2.844,1.127l-0.034-0.017v-0.918h-2.104v8.547h2.125v-5.802
	c0.542-0.588,1.42-1.075,2.26-1.075c0.491,0,0.878,0.151,1.143,0.464c0.241,0.282,0.349,0.698,0.349,1.467v4.946h2.125v-5.319
	c0-1.268-0.23-1.979-0.741-2.519C151.215,58.758,150.412,58.441,149.484,58.441z"/>
<path fill="#5E3E92" d="M158.586,58.441c-2.352,0-4.406,1.775-4.406,4.482c0,2.677,2.033,4.446,4.81,4.446
	c1.121,0,2.353-0.299,3.158-0.8v-1.929c-0.842,0.593-1.86,0.99-2.948,0.99c-1.457,0-2.596-0.731-2.858-2.154h6.228
	c0.037-0.224,0.05-0.572,0.05-0.85C162.62,59.885,160.727,58.441,158.586,58.441z M156.341,62.023
	c0.263-1.284,1.241-1.875,2.229-1.875c0.966,0,1.913,0.588,2.07,1.875H156.341z"/>
<path fill="#5E3E92" d="M166.437,59.806l-0.036-0.021v-1.191h-2.106v8.479h2.126v-5.325c0.594-0.829,1.402-1.256,2.398-1.256
	c0.289,0,0.495,0.033,0.703,0.083v-1.997c-0.189-0.046-0.385-0.064-0.577-0.064C167.928,58.509,167.03,58.975,166.437,59.806z"/>
<path fill="#5E3E92" d="M175.07,61.99c-1.301-0.278-2.371-0.242-2.371-1.053c0-0.569,0.599-0.824,1.488-0.824
	c0.897,0,2.159,0.275,3.214,0.878v-1.914c-0.931-0.447-2.159-0.671-3.192-0.671c-2.07,0-3.652,0.933-3.673,2.703
	c0,1.535,1.145,2.119,2.797,2.463c1.312,0.264,2.424,0.224,2.424,1.088c0,0.601-0.617,0.895-1.581,0.895
	c-0.947,0-2.267-0.309-3.32-0.928v1.984c0.949,0.427,2.217,0.648,3.284,0.648c2.143,0,3.755-0.94,3.771-2.77
	C177.911,62.869,176.719,62.315,175.07,61.99z"/>
<path fill="#5E3E92" d="M184.363,58.404c-1.139,0-2.123,0.482-2.825,1.116l-0.035-0.015v-5.599h-2.123v13.162h2.123v-5.755
	c0.564-0.582,1.424-1.066,2.285-1.066c0.455,0,0.844,0.137,1.121,0.462c0.243,0.279,0.353,0.658,0.353,1.452v4.907h2.126v-5.272
	c0-1.259-0.231-1.963-0.742-2.5C186.102,58.718,185.291,58.404,184.363,58.404z"/>
<rect x="189.387" y="58.594" fill="#5E3E92" width="2.121" height="8.479"/>
<path fill="#5E3E92" d="M190.453,54.496c-0.734,0-1.335,0.584-1.335,1.293c0,0.704,0.601,1.288,1.322,1.288
	c0.735,0,1.33-0.584,1.33-1.288C191.776,55.08,191.176,54.496,190.453,54.496z"/>
<path fill="#5E3E92" d="M197.871,58.404c-0.947,0-1.722,0.296-2.302,0.688l-0.036-0.017v-0.482h-2.102v12.264h2.121v-3.979
	l0.033-0.015c0.479,0.222,1.126,0.394,1.898,0.394c2.51,0,4.516-1.748,4.516-4.475C201.996,60.148,200.135,58.404,197.871,58.404z
	 M197.342,65.521c-0.697,0-1.349-0.228-1.789-0.466v-4.236c0.513-0.399,1.18-0.619,1.846-0.619c1.504,0,2.459,1.203,2.459,2.701
	C199.854,64.403,198.888,65.521,197.342,65.521z"/>
<path fill="#5E3E92" d="M149.022,22.844c-4.07,0-7.2,3.271-7.2,7.354c0,4.086,3.13,7.356,7.2,7.356c4.069,0,7.194-3.271,7.194-7.356
	C156.217,26.115,153.088,22.844,149.022,22.844z"/>
<path fill="#5E3E92" d="M72.178,21.97c-2.771,0-5.191,1.694-5.958,4.961h11.679C77.369,23.836,75.07,21.97,72.178,21.97z"/>
<path fill="#5E3E92" d="M198.085,14.734l-0.052-0.047c-2.791-2.854-6.765-4.425-11.192-4.425c-1.623,0-3.238,0.217-4.805,0.644
	h-18.111v5.038c-3.908-3.625-9.256-5.68-14.902-5.68c-5.062,0-9.842,1.618-13.615,4.578v-3.934h-7.672V1L108.8,4.205l-0.004,6.393
	c-1.94,0.185-3.771,0.57-5.473,1.193v-0.887H84.515v3.53C81.2,11.77,76.828,10.262,72.3,10.262c-6.237,0-11.91,2.656-15.718,7.322
	c-0.579-1.083-1.298-2.057-2.18-2.958c-2.751-2.813-6.687-4.365-11.076-4.365c-3.419,0-6.679,0.87-9.69,2.587
	c-2.484-1.649-5.721-2.587-8.946-2.587c-1.622,0-3.234,0.217-4.784,0.644H2.004v38.596h56.452v-4.706
	c3.896,3.457,9.19,5.347,15.081,5.347c3.872,0,7.812-0.729,10.978-2.024v1.386h18.938l-0.008-19.754
	c1.15-0.684,2.49-1.079,3.927-1.079c0.483,0,0.945,0.061,1.4,0.147v4.603l0.032,0.704c0.004,0.321,0.013,0.645,0.025,0.957
	c0.188,4.646,1.424,8.061,3.855,10.647c2.705,2.849,6.674,4.417,11.186,4.417c3.222,0,6.668-0.841,8.921-2.165
	c0.004-0.004,0.038-0.021,0.042-0.024c1.095-0.604,2.155-1.254,3.182-1.952c3.676,2.675,8.21,4.14,13.007,4.14
	c5.646,0,10.991-2.053,14.902-5.679v5.038h38.048V26.643C201.975,23.01,201.534,18.375,198.085,14.734z M53.47,44.562h-8.965v-16.58
	c0-2.161-0.353-3.151-1.062-3.909c-0.825-0.878-1.884-1.229-3.064-1.229c-2.062,0-4.188,1.053-5.721,2.393
	c0.059,0.41,0.059,0.879,0.059,1.286v18.039h-8.963v-16.58c0-1.929-0.296-3.093-1.062-3.909c-0.823-0.878-1.89-1.229-3.066-1.229
	c-2.066,0-4.192,1.104-5.664,2.337v19.383H6.996V15.843h8.848v2.569l0.118,0.056c2.241-1.869,5.189-3.271,8.728-3.271
	c3.129,0,6.725,1.227,8.436,4.091c3.127-2.747,6.546-4.091,10.205-4.091c3.243,0,5.78,1.113,7.489,2.863
	c1.832,1.866,2.655,4.379,2.655,8.467L53.47,44.562L53.47,44.562z M85.98,32.534H66.281c1.001,3.969,4.305,5.782,8.434,5.782
	c3.243,0,6.783-1.11,9.852-3.155v7.418c-2.833,1.75-7.197,2.625-11.029,2.625c-9.556,0-16.457-5.896-16.457-14.891
	c0-9.16,7.197-15.118,15.218-15.118c7.134,0,13.858,4.671,13.858,14.304C86.156,30.49,86.1,31.779,85.98,32.534z M98.468,26.975
	v17.589h-8.966V15.843h8.789v3.851l0.118,0.058c2.007-2.8,4.838-4.261,8.434-4.261c0.588,0,1.239,0.058,1.886,0.234v7.797
	c-0.445-0.05-0.895-0.087-1.356-0.087C103.922,23.435,100.788,24.787,98.468,26.975z M130.419,23.195h-7.668v9.634
	c0,2.799,0.649,4.901,3.358,4.901c1.477,0,3.129-0.584,4.31-1.166v7.065c-1.356,0.875-4.011,1.575-6.548,1.575
	c-2.949,0-5.721-0.935-7.555-2.861c-1.528-1.632-2.53-4.026-2.53-8.582V8.368l8.963-1.516v8.988h7.666v7.354H130.419z
	 M149.022,45.204c-9.262,0-16.163-6.536-16.163-15.004c0-8.465,6.901-15.002,16.163-15.002c9.257,0,16.162,6.539,16.162,15.002
	C165.181,38.668,158.279,45.204,149.022,45.204z M196.985,44.562h-8.964V28.1c0-2.163-0.294-3.211-1.002-4.027
	c-0.767-0.878-1.829-1.229-3.066-1.229c-2.304,0-4.483,1.169-6.077,2.393v19.325h-8.964V15.841h8.846v2.625l0.12,0.061
	c2.241-1.811,5.31-3.33,8.963-3.33c3.071,0,5.782,1.052,7.609,2.919c1.771,1.868,2.539,4.377,2.539,8.523L196.985,44.562
	L196.985,44.562z"/>
</svg>
